<svg width="186" height="66" viewBox="0 0 186 66" fill="none" xmlns="http://www.w3.org/2000/svg">
<g clip-path="url(#clip0_904_172)">
<path d="M34.3118 20.1116C34.074 20.8497 33.6864 21.5307 33.1732 22.112L30.0957 25.0048L24.5562 19.4038L30.2188 13.8027L33.2963 16.634C33.812 17.0334 34.1961 17.5782 34.3991 18.1981C34.6021 18.818 34.6146 19.4845 34.4349 20.1116H34.3118ZM19.6937 32.9756C18.9798 32.725 18.3214 32.3383 17.7549 31.8369L14.6774 28.944L20.4939 23.343L26.1872 28.944L23.1097 31.8369C22.6881 32.3461 22.1345 32.7294 21.5094 32.9448C20.9178 33.1172 20.2908 33.1278 19.6937 32.9756ZM6.61431 18.5113C6.86368 17.7718 7.26165 17.091 7.78376 16.5109L10.8613 13.6181L16.4008 19.3115L10.7382 24.9125L7.66066 22.0197C7.15252 21.6098 6.76883 21.0662 6.55276 20.4501C6.36806 19.8275 6.36806 19.1647 6.55276 18.5421L6.61431 18.5113ZM21.2325 5.58578C21.9881 5.80392 22.6832 6.1936 23.2636 6.72446L26.3411 9.61731L20.5246 15.4338L14.8312 9.70964L17.9087 6.87833C18.2643 6.38777 18.7568 6.01307 19.3244 5.80121C19.9576 5.61741 20.63 5.61741 21.2632 5.80121L21.2325 5.58578ZM37.2355 12.6025L27.2644 2.90835C26.09 1.83697 24.707 1.01974 23.2021 0.507899C21.5558 -0.0194811 19.7946 -0.0740901 18.1188 0.350288C16.4431 0.774666 14.9201 1.66098 13.7233 2.90835L3.93688 12.6948C2.8304 13.8243 1.99854 15.1932 1.50565 16.6956C0.963929 18.3036 0.905511 20.0353 1.33762 21.6762C1.76973 23.3171 2.67342 24.7954 3.93688 25.9281L13.8464 35.7145C15.0022 36.8178 16.3902 37.6486 17.9087 38.1458C18.8299 38.4635 19.7965 38.6298 20.7708 38.6382C22.0111 38.6036 23.2333 38.332 24.3715 37.838C25.5353 37.3546 26.584 36.631 27.449 35.7145L37.4817 25.9589C38.5804 24.8178 39.4202 23.4532 39.9437 21.9581C40.4777 20.3467 40.5292 18.6144 40.0918 16.9741C39.6544 15.3338 38.7472 13.8571 37.4817 12.7256" fill="#00ACE4"/>
<path d="M176.062 18.5113H180.955C180.875 16.8944 180.207 15.3625 179.078 14.2028C177.265 12.5775 174.894 11.7172 172.461 11.8023C170.137 11.7187 167.859 12.46 166.029 13.895C165.345 14.471 164.789 15.1839 164.398 15.9877C163.953 16.9937 163.8 18.105 163.958 19.1937C164.116 20.2825 164.578 21.3047 165.29 22.1427C166.186 23.1618 167.401 23.8456 168.737 24.0816C170.614 24.4816 172.738 24.6047 174.584 24.8817C175.154 24.9106 175.692 25.1522 176.092 25.5588C176.487 25.9615 176.708 26.5029 176.708 27.0668C176.708 29.3441 174.092 29.7134 172.399 29.7134C171.298 29.7708 170.21 29.4445 169.322 28.7902C168.747 28.3155 168.365 27.6484 168.245 26.9129H163.352C163.541 28.5554 164.317 30.0745 165.537 31.1906C167.418 32.8432 169.867 33.7035 172.369 33.5911C174.988 33.7454 177.567 32.8859 179.57 31.1906C180.192 30.6072 180.675 29.8922 180.986 29.0979C181.33 28.197 181.458 27.2278 181.359 26.2684C181.26 25.309 180.937 24.3863 180.416 23.5748C179.895 22.7632 179.19 22.0854 178.359 21.5961C177.528 21.1068 176.593 20.8197 175.631 20.7579C173.569 20.4501 173.046 20.3886 171.138 20.1731C169.999 19.9885 168.706 19.5576 168.706 18.0804C168.719 17.5926 168.88 17.1203 169.168 16.7263C169.465 16.3307 169.872 16.031 170.337 15.8646C171.036 15.6079 171.781 15.503 172.522 15.5569C173.532 15.5223 174.518 15.8621 175.292 16.5109C175.547 16.7765 175.746 17.0902 175.878 17.4337C176.01 17.7771 176.073 18.1435 176.062 18.5113ZM149.164 18.0804C149.195 17.5961 149.355 17.1288 149.626 16.7263C149.932 16.347 150.336 16.0594 150.795 15.8954C151.492 15.6309 152.236 15.5156 152.98 15.5569C153.99 15.5503 154.971 15.8989 155.75 16.5417C156.007 16.8011 156.209 17.1087 156.347 17.4467C156.484 17.7847 156.553 18.1465 156.55 18.5113H161.443C161.378 16.8911 160.708 15.3542 159.566 14.2028C157.764 12.5603 155.386 11.6974 152.95 11.8023C150.626 11.7187 148.347 12.46 146.518 13.895C145.834 14.464 145.287 15.1792 144.917 15.9877C144.573 16.7953 144.395 17.6641 144.394 18.5421C144.419 19.8915 144.921 21.1886 145.81 22.2043C146.722 23.218 147.945 23.9 149.287 24.1431C151.134 24.5432 153.257 24.6663 155.135 24.9433C155.706 24.966 156.246 25.2086 156.643 25.6203C157.018 26.033 157.226 26.5705 157.227 27.1283C157.227 29.4057 154.642 29.775 152.919 29.775C151.818 29.8248 150.733 29.4993 149.841 28.8517C149.22 28.4004 148.774 27.748 148.58 27.0052H143.84C144.044 28.6258 144.818 30.1208 146.025 31.2214C147.9 32.8854 150.353 33.7473 152.857 33.6218C155.488 33.7874 158.08 32.927 160.089 31.2214C160.897 30.3819 161.45 29.3304 161.683 28.1892C161.917 27.048 161.822 25.8639 161.41 24.7745C160.997 23.6852 160.284 22.7352 159.353 22.0351C158.422 21.335 157.311 20.9134 156.15 20.8194C154.057 20.4809 153.534 20.4501 151.626 20.2039C150.488 20.2039 149.195 19.6192 149.195 18.1112L149.164 18.0804ZM142.424 22.9121C142.636 20.3669 141.998 17.8234 140.609 15.68C139.759 14.4427 138.603 13.4462 137.254 12.7871C135.901 12.1059 134.398 11.7777 132.884 11.8331C131.63 11.7544 130.374 11.9325 129.191 12.3563C128.039 12.8042 126.991 13.4852 126.114 14.3567C125.077 15.4697 124.272 16.7771 123.743 18.2033C123.215 19.6295 122.975 21.1463 123.036 22.6659C122.996 24.2543 123.311 25.8316 123.959 27.2822C124.51 28.717 125.359 30.018 126.452 31.0983C127.328 31.9569 128.377 32.618 129.53 33.0371C130.675 33.4905 131.899 33.7103 133.13 33.6834C134.457 33.7391 135.779 33.5081 137.008 33.0063C138.175 32.472 139.221 31.7079 140.086 30.7598C141.008 29.6565 141.624 28.3297 141.871 26.9129H136.977C136.8 27.5773 136.45 28.1827 135.962 28.6671C135.54 29.0376 135.048 29.3201 134.515 29.498C133.989 29.6674 133.435 29.7302 132.884 29.6826C131.736 29.6392 130.642 29.1799 129.807 28.3901C129.288 27.8485 128.88 27.2108 128.606 26.5128C128.342 25.8162 128.227 25.0718 128.268 24.3278H142.424V22.9121ZM137.224 20.6655H128.176C128.175 19.5472 128.555 18.4618 129.253 17.588C129.675 17.071 130.213 16.6599 130.822 16.3878C131.438 16.1022 132.113 15.9651 132.792 15.9877C133.38 15.957 133.967 16.0514 134.515 16.2647C135.071 16.4564 135.577 16.7722 135.993 17.188C136.878 18.1849 137.342 19.4871 137.285 20.8194L137.224 20.6655ZM115.681 33.1602H120.759V19.2499C120.843 18.2742 120.718 17.2918 120.392 16.3685C120.065 15.4453 119.545 14.6026 118.866 13.8971C118.186 13.1916 117.364 12.6397 116.454 12.2784C115.543 11.9171 114.566 11.7548 113.588 11.8023C112.362 11.7475 111.142 12.0127 110.049 12.5717C108.968 13.1351 108.055 13.9737 107.403 15.0029L106.91 12.3563H102.632V33.1294H107.71V24.6663C107.596 22.7737 107.826 20.8762 108.387 19.0652C108.636 18.2916 109.126 17.6177 109.785 17.1416C110.443 16.6656 111.237 16.4123 112.05 16.4186C114.727 16.4186 115.558 17.8958 115.558 20.3578L115.681 33.1602ZM99.4933 16.7879H100.293V12.0793H99.6472C98.3984 11.9484 97.1395 12.2026 96.0393 12.8077C94.9392 13.4128 94.0504 14.3399 93.4922 15.4646L93.1844 12.3563H88.8759V33.1294H94.0461V22.6351C93.9568 21.881 94.0318 21.1165 94.2658 20.3941C94.4999 19.6717 94.8875 19.0085 95.4021 18.4501C95.9167 17.8917 96.546 17.4512 97.2469 17.159C97.9478 16.8667 98.7037 16.7296 99.4625 16.7571L99.4933 16.7879ZM83.5211 33.4372C84.3859 33.4707 85.2446 33.2798 86.0139 32.8832V29.1902H85.3676C84.5674 29.1902 84.1981 28.8209 84.1981 27.8669V20.2347C84.2555 18.8134 84.0467 17.3939 83.5826 16.0493C82.8821 14.5965 81.7394 13.403 80.3185 12.64C78.8975 11.877 77.2714 11.5837 75.6734 11.8023C70.9649 11.8023 67.1795 13.895 66.9026 18.5728H71.7958C71.7958 16.634 73.3038 15.4953 75.6734 15.4953C78.5355 15.4953 79.2433 16.8187 79.2433 18.7883V20.0808L73.0883 20.5117C72.1745 20.4444 71.2566 20.565 70.3911 20.866C69.5257 21.1671 68.7311 21.6423 68.0564 22.2622C67.3816 22.8822 66.841 23.6338 66.4679 24.4707C66.0948 25.3076 65.8971 26.2121 65.887 27.1283C65.9136 28.074 66.1382 29.0035 66.5461 29.8571C66.9541 30.7106 67.5364 31.4692 68.2555 32.0839C68.9745 32.6986 69.8145 33.1558 70.7211 33.426C71.6277 33.6962 72.5809 33.7734 73.5192 33.6526C74.7588 33.7189 75.9952 33.4717 77.114 32.9338C78.2328 32.3959 79.198 31.5847 79.9204 30.5751C80.0154 31.4336 80.447 32.2194 81.1206 32.7601C81.801 33.2918 82.6631 33.535 83.5211 33.4372ZM79.2433 24.851C79.249 25.5367 79.1077 26.2157 78.8289 26.8423C78.5501 27.4689 78.1403 28.0284 77.6271 28.4833C77.1139 28.9382 76.5092 29.2779 75.8536 29.4795C75.1981 29.681 74.5071 29.7398 73.8269 29.6519C73.472 29.7284 73.1048 29.7284 72.7498 29.6519C72.324 29.5353 71.9399 29.3005 71.6419 28.9748C71.3663 28.7259 71.1461 28.4219 70.9956 28.0823C70.8118 27.7644 70.7162 27.4032 70.7187 27.036C70.8094 26.2853 71.1732 25.5944 71.7408 25.0949C72.3085 24.5954 73.0401 24.3223 73.7962 24.3278L79.151 23.9277L79.2433 24.851ZM58.5933 33.0987H63.702V19.1268C63.786 18.1457 63.6599 17.1581 63.332 16.2296C63.0041 15.3012 62.482 14.4533 61.8005 13.7427C61.1189 13.032 60.2937 12.4749 59.3798 12.1084C58.4659 11.742 57.4843 11.5747 56.5006 11.6177C55.3496 11.5947 54.2098 11.848 53.1769 12.3563C52.1573 12.8183 51.2689 13.5269 50.5918 14.4182V3.98547H45.5447V33.0987H50.6841V22.0812C50.6841 19.4961 51.9767 16.2647 55.0542 16.2647C58.1317 16.2647 58.5933 17.7419 58.5933 20.1731V33.0987Z" fill="#0A1E2F"/>
<path d="M51.3758 58.319C50.2054 58.319 49.1855 58.0264 48.3162 57.4412C47.4526 56.8559 46.7821 56.0548 46.3048 55.0377C45.8276 54.0207 45.5889 52.8616 45.5889 51.5605C45.5889 50.248 45.8304 49.0804 46.3133 48.0576C46.802 47.0349 47.4781 46.2338 48.3418 45.6542C49.2054 45.069 50.2082 44.7764 51.3503 44.7764C52.2253 44.7764 53.0179 44.9468 53.7281 45.2877C54.4383 45.623 55.0236 46.0974 55.4838 46.711C55.9497 47.319 56.2423 48.0292 56.3616 48.8417H54.8276C54.6685 48.1031 54.2849 47.4724 53.677 46.9497C53.0747 46.4213 52.3077 46.1571 51.3758 46.1571C50.5406 46.1571 49.802 46.3843 49.1599 46.8389C48.5179 47.2877 48.0151 47.9156 47.6514 48.7224C47.2935 49.5235 47.1145 50.4525 47.1145 51.5093C47.1145 52.5718 47.2906 53.5122 47.6429 54.3304C47.9952 55.1429 48.4895 55.7792 49.1258 56.2394C49.7679 56.6997 50.5179 56.9298 51.3758 56.9298C51.9554 56.9298 52.4838 56.8218 52.9611 56.6059C53.444 56.3843 53.8474 56.0718 54.1713 55.6684C54.5008 55.265 54.7224 54.7849 54.8361 54.2281H56.3702C56.2565 55.0179 55.9753 55.7224 55.5264 56.3417C55.0832 56.9554 54.5065 57.4383 53.7963 57.7906C53.0918 58.1429 52.2849 58.319 51.3758 58.319ZM64.7097 58.319C63.579 58.319 62.579 58.0321 61.7097 57.4582C60.846 56.8843 60.1699 56.0917 59.6812 55.0804C59.1926 54.0633 58.9483 52.89 58.9483 51.5605C58.9483 50.2196 59.1926 49.0406 59.6812 48.0235C60.1699 47.0008 60.846 46.2054 61.7097 45.6372C62.579 45.0633 63.579 44.7764 64.7097 44.7764C65.8403 44.7764 66.8375 45.0633 67.7011 45.6372C68.5648 46.211 69.2409 47.0065 69.7295 48.0235C70.2239 49.0406 70.471 50.2196 70.471 51.5605C70.471 52.89 70.2267 54.0633 69.7381 55.0804C69.2494 56.0917 68.5704 56.8843 67.7011 57.4582C66.8375 58.0321 65.8403 58.319 64.7097 58.319ZM64.7097 56.9298C65.6187 56.9298 66.3886 56.6855 67.0193 56.1968C67.65 55.7082 68.1273 55.0576 68.4511 54.2451C68.7807 53.4326 68.9454 52.5377 68.9454 51.5605C68.9454 50.5832 68.7807 49.6855 68.4511 48.8673C68.1273 48.0491 67.65 47.3929 67.0193 46.8985C66.3886 46.4042 65.6187 46.1571 64.7097 46.1571C63.8062 46.1571 63.0364 46.4042 62.4 46.8985C61.7693 47.3929 61.2892 48.0491 60.9597 48.8673C60.6358 49.6855 60.4739 50.5832 60.4739 51.5605C60.4739 52.5377 60.6358 53.4326 60.9597 54.2451C61.2892 55.0576 61.7693 55.7082 62.4 56.1968C63.0307 56.6855 63.8006 56.9298 64.7097 56.9298ZM73.8013 58.0463V44.9554H75.2757V46.9667H75.4121C75.6734 46.2906 76.1081 45.7593 76.716 45.373C77.3297 44.9809 78.0655 44.7849 78.9234 44.7849C79.8268 44.7849 80.5683 44.998 81.1479 45.4241C81.7331 45.8446 82.1706 46.4241 82.4604 47.1627H82.5712C82.8666 46.4355 83.3467 45.8588 84.0115 45.4326C84.682 45.0008 85.4945 44.7849 86.449 44.7849C87.6649 44.7849 88.6251 45.1684 89.3297 45.9355C90.0342 46.6968 90.3865 47.8105 90.3865 49.2764V58.0463H88.8695V49.2764C88.8695 48.2423 88.6052 47.4667 88.0768 46.9497C87.5484 46.4326 86.8524 46.1741 85.9888 46.1741C84.9888 46.1741 84.2189 46.4809 83.6791 47.0946C83.1393 47.7082 82.8695 48.4866 82.8695 49.4298V58.0463H81.3183V49.14C81.3183 48.2537 81.0712 47.5377 80.5768 46.9923C80.0825 46.4468 79.3865 46.1741 78.4888 46.1741C77.8865 46.1741 77.3439 46.3218 76.8609 46.6173C76.3837 46.9127 76.0058 47.3247 75.7274 47.8531C75.4547 48.3758 75.3183 48.9781 75.3183 49.6599V58.0463H73.8013ZM94.4028 58.0463V44.9554H95.8773V46.9667H96.0136C96.275 46.2906 96.7097 45.7593 97.3176 45.373C97.9312 44.9809 98.667 44.7849 99.525 44.7849C100.428 44.7849 101.17 44.998 101.749 45.4241C102.335 45.8446 102.772 46.4241 103.062 47.1627H103.173C103.468 46.4355 103.948 45.8588 104.613 45.4326C105.284 45.0008 106.096 44.7849 107.051 44.7849C108.266 44.7849 109.227 45.1684 109.931 45.9355C110.636 46.6968 110.988 47.8105 110.988 49.2764V58.0463H109.471V49.2764C109.471 48.2423 109.207 47.4667 108.678 46.9497C108.15 46.4326 107.454 46.1741 106.59 46.1741C105.59 46.1741 104.82 46.4809 104.281 47.0946C103.741 47.7082 103.471 48.4866 103.471 49.4298V58.0463H101.92V49.14C101.92 48.2537 101.673 47.5377 101.178 46.9923C100.684 46.4468 99.9881 46.1741 99.0903 46.1741C98.4881 46.1741 97.9454 46.3218 97.4625 46.6173C96.9852 46.9127 96.6074 47.3247 96.329 47.8531C96.0562 48.3758 95.9199 48.9781 95.9199 49.6599V58.0463H94.4028ZM123.323 53.0434V44.9554H124.84V58.0463H123.323V55.873H123.203C122.896 56.5434 122.411 57.1031 121.746 57.5519C121.081 57.9951 120.269 58.2167 119.308 58.2167C118.473 58.2167 117.732 58.0349 117.084 57.6713C116.436 57.3019 115.928 56.7622 115.558 56.0519C115.189 55.3417 115.004 54.4696 115.004 53.4355V44.9554H116.521V53.3417C116.521 54.3644 116.823 55.1883 117.425 55.8133C118.027 56.4326 118.8 56.7423 119.743 56.7423C120.334 56.7423 120.902 56.6002 121.448 56.3162C121.993 56.0321 122.442 55.6173 122.794 55.0718C123.146 54.5207 123.323 53.8446 123.323 53.0434ZM130.373 49.8644V58.0463H128.856V44.9554H130.33V47.0093H130.467C130.774 46.3389 131.251 45.8019 131.899 45.3985C132.552 44.9894 133.359 44.7849 134.319 44.7849C135.2 44.7849 135.972 44.9696 136.637 45.3389C137.308 45.7025 137.828 46.2394 138.197 46.9497C138.572 47.6599 138.759 48.5321 138.759 49.5662V58.0463H137.242V49.6599C137.242 48.586 136.941 47.7366 136.339 47.1116C135.742 46.4866 134.941 46.1741 133.936 46.1741C133.248 46.1741 132.637 46.3218 132.103 46.6173C131.569 46.9127 131.146 47.3389 130.833 47.8957C130.526 48.4468 130.373 49.1031 130.373 49.8644ZM142.771 58.0463V44.9554H144.297V58.0463H142.771ZM143.547 42.7054C143.235 42.7054 142.967 42.6002 142.746 42.39C142.524 42.1741 142.413 41.9156 142.413 41.6144C142.413 41.3133 142.524 41.0576 142.746 40.8474C142.967 40.6315 143.235 40.5235 143.547 40.5235C143.86 40.5235 144.127 40.6315 144.348 40.8474C144.57 41.0576 144.681 41.3133 144.681 41.6144C144.681 41.9156 144.57 42.1741 144.348 42.39C144.127 42.6002 143.86 42.7054 143.547 42.7054ZM153.465 44.9554V46.2764H147.218V44.9554H153.465ZM149.17 41.819H150.695V54.6287C150.695 55.1741 150.789 55.6031 150.977 55.9156C151.164 56.2224 151.409 56.4412 151.71 56.5718C152.011 56.6968 152.332 56.7593 152.673 56.7593C152.872 56.7593 153.042 56.748 153.184 56.7252C153.326 56.6968 153.451 56.6684 153.559 56.64L153.883 58.0122C153.735 58.069 153.553 58.1201 153.337 58.1656C153.122 58.2167 152.855 58.2423 152.536 58.2423C151.98 58.2423 151.443 58.1201 150.926 57.8758C150.414 57.6315 149.994 57.2679 149.664 56.7849C149.335 56.3019 149.17 55.7025 149.17 54.9866V41.819ZM157.967 62.9554C157.666 62.9554 157.385 62.9269 157.124 62.8701C156.862 62.8133 156.655 62.7508 156.502 62.6826L156.911 61.3446C157.428 61.5037 157.888 61.5605 158.291 61.515C158.695 61.4752 159.053 61.2934 159.365 60.9696C159.678 60.6514 159.956 60.1627 160.2 59.5037L160.678 58.1741L155.862 44.9554H157.507L161.394 56.0434H161.513L165.399 44.9554H167.044L161.504 60.1173C161.271 60.748 160.985 61.2735 160.644 61.694C160.303 62.1201 159.908 62.4355 159.459 62.64C159.016 62.8502 158.519 62.9554 157.967 62.9554Z" fill="black"/>
</g>
<defs>
<clipPath id="clip0_904_172">
<rect width="185" height="65" fill="white" transform="translate(0.859375 0.0462646)"/>
</clipPath>
</defs>
</svg>
